<svg width="16" height="60" viewBox="0 0 16 60" fill="none" xmlns="http://www.w3.org/2000/svg">
<path d="M15.24 53.12C15.24 55.12 14.6867 56.68 13.58 57.8C12.4733 58.9067 10.8933 59.46 8.84 59.46H0.999999V56.22H8.72C11.2267 56.22 12.48 55.18 12.48 53.1C12.48 52.0867 12.18 51.3133 11.58 50.78C10.9667 50.2467 10.0133 49.98 8.72 49.98H0.999999V46.78H8.84C10.8933 46.78 12.4733 47.34 13.58 48.46C14.6867 49.5667 15.24 51.12 15.24 53.12ZM3.64 40.9127V45.3927H0.999999L0.999999 33.1927H3.64V37.6727H15V40.9127H3.64ZM15.24 24.9447C15.24 26.3714 14.9333 27.6647 14.32 28.8247C13.6933 29.9714 12.8333 30.878 11.74 31.5447C10.6333 32.198 9.38667 32.5247 8 32.5247C6.61333 32.5247 5.37333 32.198 4.28 31.5447C3.17333 30.878 2.31333 29.9714 1.7 28.8247C1.07333 27.6647 0.76 26.3647 0.76 24.9247C0.76 23.7114 0.973333 22.618 1.4 21.6447C1.82667 20.658 2.44 19.8314 3.24 19.1647L5.16 21.2447C4.06667 22.1914 3.52 23.3647 3.52 24.7647C3.52 25.6314 3.71333 26.4047 4.1 27.0847C4.47333 27.7647 5 28.298 5.68 28.6847C6.36 29.058 7.13333 29.2447 8 29.2447C8.86667 29.2447 9.64 29.058 10.32 28.6847C11 28.298 11.5333 27.7647 11.92 27.0847C12.2933 26.4047 12.48 25.6314 12.48 24.7647C12.48 23.3647 11.9267 22.1914 10.82 21.2447L12.74 19.1647C13.5533 19.8314 14.1733 20.658 14.6 21.6447C15.0267 22.6314 15.24 23.7314 15.24 24.9447ZM8.12 17.7139L8.12 12.0539H10.62L10.62 17.7139H8.12ZM6.7 4.10969C6.9 2.88302 7.36 1.94302 8.08 1.28969C8.78667 0.636353 9.66667 0.309686 10.72 0.309686C11.5333 0.309686 12.2867 0.52302 12.98 0.949687C13.66 1.37635 14.2067 2.02969 14.62 2.90969C15.0333 3.77635 15.24 4.84302 15.24 6.10969C15.24 7.09635 15.1133 8.06969 14.86 9.02969C14.5933 9.97635 14.22 10.783 13.74 11.4497L11.26 10.1897C11.66 9.65635 11.9733 9.04302 12.2 8.34969C12.4133 7.64302 12.52 6.92302 12.52 6.18969C12.52 5.37635 12.3667 4.73635 12.06 4.26969C11.74 3.80302 11.2933 3.56969 10.72 3.56969C9.57333 3.56969 9 4.44302 9 6.18969V7.66969H6.86L3.6 4.78969L3.6 10.7497H0.999999L0.999999 0.949687H3.1L6.7 4.10969Z" fill="white"/>
</svg>
